<svg width="1247" height="215" viewBox="0 0 1247 215" fill="none" xmlns="http://www.w3.org/2000/svg">
<path d="M0.2 67.288C0.2 49.24 7.592 33.688 22.376 20.632C37.16 7.384 57.8 0.759995 84.296 0.759995C104.456 0.759995 129.128 5.46399 158.312 14.872V70.744H156.584C155.432 69.784 148.424 63.256 135.56 51.16C122.888 39.064 111.848 30.136 102.44 24.376C93.224 18.424 84.296 15.448 75.656 15.448C67.976 15.448 61.928 17.656 57.512 22.072C53.288 26.488 51.176 31.672 51.176 37.624C51.176 41.656 52.136 45.304 54.056 48.568C56.168 51.832 59.528 54.904 64.136 57.784C68.936 60.664 73.16 63.064 76.808 64.984C80.648 66.712 86.312 69.208 93.8 72.472C101.48 75.544 107.144 77.848 110.792 79.384C149.576 96.856 168.968 120.184 168.968 149.368C168.968 170.296 160.616 186.424 143.912 197.752C127.4 208.888 107.528 214.456 84.296 214.456C59.144 214.456 32.648 209.176 4.808 198.616V142.456H7.112C9.416 144.376 14.12 148.792 21.224 155.704C28.328 162.424 34.088 167.704 38.504 171.544C42.92 175.192 48.392 179.512 54.92 184.504C61.64 189.496 67.976 193.24 73.928 195.736C80.072 198.04 85.928 199.192 91.496 199.192C98.216 199.192 104.072 197.176 109.064 193.144C114.056 188.92 116.552 182.872 116.552 175C116.552 170.392 115.4 166.168 113.096 162.328C110.984 158.488 108.584 155.32 105.896 152.824C103.4 150.136 99.176 147.256 93.224 144.184C87.272 140.92 82.472 138.52 78.824 136.984C75.176 135.448 69.224 133.048 60.968 129.784C52.136 126.328 44.648 123.064 38.504 119.992C32.552 116.728 26.312 112.6 19.784 107.608C13.256 102.616 8.36 96.76 5.096 90.04C1.832 83.32 0.2 75.736 0.2 67.288ZM178.747 64.12H241.819V158.296C241.819 172.888 248.443 180.184 261.691 180.184C267.067 180.184 273.019 179.032 279.547 176.728C279.355 175.192 279.259 172.696 279.259 169.24V113.368C279.259 109.336 278.971 105.016 278.395 100.408C277.819 95.608 277.051 91.288 276.091 87.448C275.323 83.416 274.459 79.768 273.499 76.504C272.539 73.24 271.771 70.648 271.195 68.728C270.619 66.616 270.331 65.464 270.331 65.272V64.12H333.403V161.752C333.403 165.784 333.691 170.2 334.267 175C334.843 179.608 335.515 183.928 336.282 187.96C337.243 191.8 338.203 195.352 339.163 198.616C340.123 201.88 340.891 204.568 341.467 206.68C342.043 208.6 342.331 209.656 342.331 209.848V211H293.083C286.747 200.632 282.811 192.184 281.275 185.656C270.523 204.472 255.259 213.88 235.483 213.88C221.467 213.88 209.947 209.656 200.923 201.208C192.091 192.568 187.675 180.856 187.675 166.072V113.368C187.675 109.336 187.387 105.016 186.811 100.408C186.235 95.608 185.467 91.288 184.507 87.448C183.739 83.416 182.875 79.768 181.915 76.504C180.955 73.24 180.187 70.648 179.611 68.728C179.035 66.616 178.747 65.464 178.747 65.272V64.12ZM350.851 211V209.272C350.851 209.08 351.427 207.448 352.579 204.376C353.923 201.304 355.459 197.368 357.187 192.568C358.915 187.576 360.643 182.2 362.371 176.44C364.099 170.488 365.539 163.96 366.691 156.856C368.035 149.752 368.707 143.128 368.707 136.984V52.888C368.707 48.856 368.227 44.536 367.267 39.928C366.499 35.128 365.443 30.808 364.099 26.968C362.755 22.936 361.411 19.288 360.067 16.024C358.723 12.76 357.571 10.168 356.611 8.24798C355.843 6.13599 355.459 4.98399 355.459 4.79199V3.63999H424.579L478.147 132.664L524.803 3.63999H591.331V4.79199C591.331 4.98399 591.043 6.13599 590.467 8.24798C589.891 10.168 589.123 12.76 588.163 16.024C587.203 19.288 586.243 22.936 585.283 26.968C584.515 30.808 583.843 35.128 583.267 39.928C582.691 44.536 582.403 48.856 582.403 52.888V161.752C582.403 165.784 582.691 170.2 583.267 175C583.843 179.608 584.515 183.928 585.283 187.96C586.243 191.8 587.203 195.352 588.163 198.616C589.123 201.88 589.891 204.568 590.467 206.68C591.043 208.6 591.331 209.656 591.331 209.848V211H515.875V209.848C515.875 209.656 516.163 208.6 516.739 206.68C517.315 204.568 518.083 201.88 519.043 198.616C520.003 195.352 520.867 191.8 521.635 187.96C522.595 183.928 523.363 179.608 523.939 175C524.515 170.2 524.803 165.784 524.803 161.752V46.84L465.763 211H449.923L383.683 46.84C383.491 48.184 383.395 50.2 383.395 52.888V136.984C383.395 143.128 383.971 149.752 385.123 156.856C386.467 163.96 388.003 170.488 389.731 176.44C391.459 182.2 393.187 187.576 394.915 192.568C396.643 197.368 398.083 201.304 399.235 204.376C400.579 207.448 401.251 209.08 401.251 209.272V211H350.851ZM605.664 211V209.272C605.664 209.08 606.24 207.448 607.392 204.376C608.736 201.304 610.272 197.368 612 192.568C613.728 187.576 615.456 182.2 617.184 176.44C618.912 170.488 620.352 163.96 621.504 156.856C622.848 149.752 623.52 143.128 623.52 136.984V52.888C623.52 48.856 623.04 44.536 622.08 39.928C621.312 35.128 620.256 30.808 618.912 26.968C617.568 22.936 616.224 19.288 614.88 16.024C613.536 12.76 612.384 10.168 611.424 8.24798C610.656 6.13599 610.272 4.98399 610.272 4.79199V3.63999H679.392L732.96 132.664L779.616 3.63999H846.144V4.79199C846.144 4.98399 845.856 6.13599 845.28 8.24798C844.704 10.168 843.936 12.76 842.976 16.024C842.016 19.288 841.056 22.936 840.096 26.968C839.328 30.808 838.656 35.128 838.08 39.928C837.504 44.536 837.216 48.856 837.216 52.888V161.752C837.216 165.784 837.504 170.2 838.08 175C838.656 179.608 839.328 183.928 840.096 187.96C841.056 191.8 842.016 195.352 842.976 198.616C843.936 201.88 844.704 204.568 845.28 206.68C845.856 208.6 846.144 209.656 846.144 209.848V211H770.688V209.848C770.688 209.656 770.976 208.6 771.552 206.68C772.128 204.568 772.896 201.88 773.856 198.616C774.816 195.352 775.68 191.8 776.448 187.96C777.408 183.928 778.176 179.608 778.752 175C779.328 170.2 779.616 165.784 779.616 161.752V46.84L720.576 211H704.736L638.496 46.84C638.304 48.184 638.208 50.2 638.208 52.888V136.984C638.208 143.128 638.784 149.752 639.936 156.856C641.28 163.96 642.816 170.488 644.544 176.44C646.272 182.2 648 187.576 649.728 192.568C651.456 197.368 652.896 201.304 654.048 204.376C655.392 207.448 656.064 209.08 656.064 209.272V211H605.664ZM866.236 4.79199V3.63999H1024.64V66.136H1023.2C1023 66.136 1021.56 64.504 1018.88 61.24C1016.38 57.784 1012.92 53.656 1008.51 48.856C1004.28 44.056 999.676 39.256 994.684 34.456C989.692 29.656 984.124 25.624 977.98 22.36C971.836 18.904 966.076 17.176 960.7 17.176H932.764V99.544H935.356C940.732 99.544 946.492 98.968 952.636 97.816C958.78 96.472 964.348 94.936 969.34 93.208C974.332 91.48 978.94 89.752 983.164 88.024C987.58 86.296 991.036 84.856 993.532 83.704C996.22 82.36 997.66 81.688 997.852 81.688H999.292V128.92H997.852C997.66 128.92 996.22 128.344 993.532 127.192C991.036 125.848 987.58 124.312 983.164 122.584C978.94 120.856 974.332 119.128 969.34 117.4C964.348 115.672 958.78 114.232 952.636 113.08C946.492 111.736 940.732 111.064 935.356 111.064H932.764V197.464H961.564C966.94 197.464 972.7 195.832 978.844 192.568C984.988 189.112 990.556 184.984 995.548 180.184C1000.54 175.384 1005.15 170.584 1009.37 165.784C1013.79 160.792 1017.24 156.664 1019.74 153.4C1022.43 149.944 1023.87 148.216 1024.06 148.216H1025.5V211H866.236V209.848C866.236 209.656 866.524 208.6 867.1 206.68C867.676 204.568 868.348 201.88 869.116 198.616C870.076 195.352 871.036 191.8 871.996 187.96C872.956 183.928 873.724 179.608 874.3 175C874.876 170.2 875.164 165.784 875.164 161.752V52.888C875.164 48.856 874.876 44.536 874.3 39.928C873.724 35.128 872.956 30.808 871.996 26.968C871.036 22.936 870.076 19.288 869.116 16.024C868.348 12.76 867.676 10.168 867.1 8.24798C866.524 6.13599 866.236 4.98399 866.236 4.79199ZM1046.54 206.392C1047.11 204.472 1047.79 201.88 1048.55 198.616C1049.51 195.352 1050.47 191.8 1051.43 187.96C1052.39 183.928 1053.16 179.608 1053.74 175C1054.31 170.2 1054.6 165.784 1054.6 161.752V52.888C1054.6 48.856 1054.31 44.536 1053.74 39.928C1053.16 35.128 1052.39 30.808 1051.43 26.968C1050.47 22.936 1049.51 19.288 1048.55 16.024C1047.79 12.76 1047.11 10.168 1046.54 8.24798C1045.96 6.13599 1045.67 4.98399 1045.67 4.79199V3.63999H1151.08C1171.43 3.63999 1188.04 8.63199 1200.91 18.616C1213.77 28.6 1220.2 41.368 1220.2 56.92C1220.2 73.24 1214.35 85.816 1202.63 94.648C1191.11 103.288 1174.99 108.28 1154.25 109.624C1176.33 113.464 1193.13 124.696 1204.65 143.32C1207.91 148.504 1211.95 156.088 1216.75 166.072C1221.55 175.864 1226.15 184.312 1230.57 191.416C1235.18 198.52 1240.46 204.568 1246.41 209.56V211H1177.87C1171.53 206.008 1162.31 189.016 1150.22 160.024C1139.85 135.64 1127.18 120.568 1112.2 114.808V161.752C1112.2 165.784 1112.49 170.2 1113.07 175C1113.64 179.608 1114.41 183.928 1115.37 187.96C1116.33 191.8 1117.19 195.352 1117.96 198.616C1118.92 201.88 1119.69 204.568 1120.27 206.68C1120.84 208.6 1121.13 209.656 1121.13 209.848V211H1045.67V209.848C1045.67 209.656 1045.96 208.504 1046.54 206.392ZM1112.2 15.448V101.56H1130.63C1149.45 101.56 1158.86 87.736 1158.86 60.088C1158.86 46.648 1156.55 35.896 1151.95 27.832C1147.34 19.576 1140.23 15.448 1130.63 15.448H1112.2Z" fill="white"/>
</svg>
