<svg width="538" height="138" viewBox="0 0 538 138" fill="none" xmlns="http://www.w3.org/2000/svg">
<g clip-path="url(#clip0_392_912)">
<path d="M438.631 70.4062H436.068V127.713H438.631V70.4062Z" fill="white"/>
<path d="M130.098 96.319V136.363H116.074V96.319C116.193 93.3487 115.711 90.3849 114.657 87.6055C113.602 84.826 111.997 82.2883 109.938 80.1445C107.879 78.0007 105.407 76.2951 102.673 75.1299C99.9377 73.9648 96.9957 73.3642 94.023 73.3642C91.0503 73.3642 88.1083 73.9648 85.3734 75.1299C82.6386 76.2951 80.1673 78.0007 78.1079 80.1445C76.0485 82.2883 74.4435 84.826 73.3892 87.6055C72.3348 90.3849 71.8528 93.3487 71.9721 96.319V136.363H57.9479V96.319C58.0671 93.3581 57.5868 90.4038 56.536 87.6332C55.4851 84.8625 53.8852 82.3328 51.8325 80.1958C49.7797 78.0587 47.3164 76.3585 44.5903 75.197C41.8642 74.0356 38.9315 73.4369 35.9683 73.4369C33.0051 73.4369 30.0724 74.0356 27.3462 75.197C24.6201 76.3585 22.1568 78.0587 20.104 80.1958C18.0513 82.3328 16.4515 84.8625 15.4007 87.6332C14.3498 90.4038 13.8695 93.3581 13.9886 96.319V136.363H0V61.7923H13.9886V68.9112C20.1816 63.7062 27.9066 60.6687 35.9861 60.2617C45.6346 60.4231 54.8253 64.4041 61.543 71.3316C62.8772 72.5603 64.071 73.9331 65.1024 75.425C66.1936 73.9805 67.3829 72.6128 68.6619 71.3316C75.3796 64.4041 84.5703 60.4231 94.2187 60.2617C98.9441 60.2664 103.622 61.2035 107.985 63.0194C112.347 64.8352 116.309 67.4942 119.642 70.8438C122.975 74.1935 125.614 78.1679 127.408 82.5395C129.203 86.911 130.117 91.5936 130.098 96.319V96.319Z" fill="white"/>
<path d="M203.672 61.7922H217.66V136.363H203.672V127.749C196.8 133.941 187.996 137.563 178.755 138C168.437 138 158.542 133.901 151.246 126.605C143.949 119.309 139.851 109.413 139.851 99.0953C139.851 88.7771 143.949 78.8814 151.246 71.5854C158.542 64.2893 168.437 60.1904 178.755 60.1904C187.996 60.627 196.8 64.2492 203.672 70.4417V61.7922ZM203.672 99.0953C203.608 94.1814 202.094 89.396 199.318 85.3409C196.542 81.2859 192.629 78.1422 188.07 76.3054C183.512 74.4686 178.513 74.0206 173.701 75.0179C168.889 76.0151 164.479 78.4131 161.027 81.9101C157.574 85.4071 155.233 89.847 154.297 94.6713C153.361 99.4956 153.873 104.489 155.768 109.023C157.663 113.557 160.856 117.43 164.947 120.154C169.037 122.878 173.841 124.331 178.755 124.332C185.393 124.248 191.73 121.552 196.394 116.828C201.057 112.104 203.672 105.733 203.672 99.0953V99.0953Z" fill="white"/>
<path d="M362.743 96.319V136.363H348.719V96.319C348.839 93.3487 348.357 90.3849 347.302 87.6055C346.248 84.826 344.643 82.2883 342.584 80.1445C340.524 78.0007 338.053 76.2951 335.318 75.1299C332.583 73.9648 329.641 73.3642 326.668 73.3642C323.696 73.3642 320.754 73.9648 318.019 75.1299C315.284 76.2951 312.813 78.0007 310.753 80.1445C308.694 82.2883 307.089 84.826 306.035 87.6055C304.98 90.3849 304.498 93.3487 304.618 96.319V136.363H290.593V96.319C290.712 93.3581 290.232 90.4038 289.181 87.6332C288.131 84.8625 286.531 82.3328 284.478 80.1958C282.425 78.0587 279.962 76.3585 277.236 75.197C274.51 74.0356 271.577 73.4369 268.614 73.4369C265.65 73.4369 262.718 74.0356 259.992 75.197C257.266 76.3585 254.802 78.0587 252.75 80.1958C250.697 82.3328 249.097 84.8625 248.046 87.6332C246.995 90.4038 246.515 93.3581 246.634 96.319V136.363H232.646V61.7923H246.634V68.9112C252.827 63.7062 260.552 60.6687 268.632 60.2617C278.28 60.4231 287.471 64.4041 294.188 71.3316C295.523 72.5603 296.716 73.9331 297.748 75.425C298.839 73.9805 300.028 72.6128 301.307 71.3316C308.054 64.4129 317.272 60.4568 326.935 60.3329C331.664 60.3235 336.348 61.2479 340.718 63.0531C345.088 64.8582 349.059 67.5086 352.402 70.8521C355.746 74.1956 358.396 78.1663 360.201 82.5366C362.006 86.9069 362.931 91.5906 362.921 96.319H362.743Z" fill="white"/>
<path d="M411.223 60.1904C400.905 60.1904 391.009 64.2893 383.713 71.5854C376.417 78.8814 372.318 88.7771 372.318 99.0953C372.318 109.413 376.417 119.309 383.713 126.605C391.009 133.901 400.905 138 411.223 138C420.524 137.598 429.395 133.974 436.317 127.749V99.2732C436.254 104.179 434.744 108.958 431.976 113.009C429.208 117.06 425.305 120.204 420.757 122.046C416.209 123.888 411.219 124.346 406.412 123.363C401.605 122.38 397.195 120 393.735 116.521C390.275 113.041 387.92 108.618 386.964 103.805C386.008 98.9928 386.495 94.0051 388.363 89.4678C390.231 84.9306 393.396 81.0458 397.463 78.3006C401.53 75.5555 406.317 74.0722 411.223 74.0367C417.892 74.0743 424.274 76.7498 428.976 81.4785C433.678 86.2071 436.317 92.6047 436.317 99.2732V70.4417C429.405 64.2009 420.528 60.5744 411.223 60.1904V60.1904Z" fill="white"/>
<path d="M461.981 51.0068V2.66943H467.071V51.0068H461.981Z" fill="#F9B18C" stroke="#F9B18C" stroke-width="2.66959" stroke-miterlimit="10"/>
<path d="M477.75 6.47799C477.75 5.73221 478.046 5.01697 478.574 4.48962C479.101 3.96228 479.816 3.66602 480.562 3.66602H480.74C481.486 3.66602 482.201 3.96228 482.728 4.48962C483.256 5.01697 483.552 5.73221 483.552 6.47799V6.47799C483.552 7.22377 483.256 7.939 482.728 8.46634C482.201 8.99369 481.486 9.28995 480.74 9.28995H480.562C479.816 9.28995 479.101 8.99369 478.574 8.46634C478.046 7.939 477.75 7.22377 477.75 6.47799V6.47799ZM478.07 51.0067V16.7648H483.16V51.0067H478.07Z" fill="#F9B18C" stroke="#F9B18C" stroke-width="2.66959" stroke-miterlimit="10"/>
<path d="M511.493 16.9071V21.2852H500.815V51.0066H495.725V21.2852H491.026V16.8359H495.725V13.8815C495.498 10.7983 496.452 7.74409 498.394 5.33883C499.385 4.3304 500.581 3.5476 501.902 3.04388C503.223 2.54016 504.637 2.32738 506.047 2.42007C507.082 2.41655 508.116 2.47599 509.144 2.59805C510.008 2.73543 510.855 2.96208 511.671 3.27434V7.86604C510.853 7.60712 510.021 7.39323 509.18 7.22533C508.371 7.06473 507.548 6.9813 506.724 6.97617C502.737 6.97617 500.744 9.43219 500.744 14.2731V17.0494L511.493 16.9071Z" fill="#F9B18C" stroke="#F9B18C" stroke-width="2.66959" stroke-miterlimit="10"/>
<path d="M525.411 41.2899C525.322 42.0961 525.417 42.9119 525.688 43.6763C525.959 44.4407 526.4 45.1338 526.977 45.7036C528.187 46.604 529.671 47.0569 531.177 46.985C532.004 46.9855 532.828 46.89 533.633 46.7003C534.501 46.5012 535.338 46.1901 536.125 45.7748V50.153C535.241 50.6451 534.295 51.0163 533.313 51.2564C532.216 51.5113 531.093 51.6309 529.967 51.6123C528.667 51.6196 527.372 51.4398 526.123 51.0784C524.995 50.7451 523.951 50.1747 523.062 49.4055C522.153 48.574 521.457 47.5364 521.033 46.3799C520.502 44.9581 520.248 43.4478 520.285 41.9306V21.2858H515.587V16.7653H520.357V6.44287H525.482V16.7653H536.161V21.2858H525.482L525.411 41.2899Z" fill="#F9B18C" stroke="#F9B18C" stroke-width="2.66959" stroke-miterlimit="10"/>
<path d="M411.081 124.296C425.019 124.296 436.318 112.998 436.318 99.0598C436.318 85.122 425.019 73.8232 411.081 73.8232C397.143 73.8232 385.845 85.122 385.845 99.0598C385.845 112.998 397.143 124.296 411.081 124.296Z" fill="#F9B08C"/>
<path d="M439.771 -0.000162765C435.814 0.019603 431.911 0.918675 428.344 2.63201C424.778 4.34534 421.637 6.83007 419.148 9.90644C416.66 12.9828 414.886 16.5739 413.956 20.4198C413.026 24.2657 412.962 28.2703 413.77 32.1438C414.577 36.0173 416.236 39.6628 418.625 42.8167C421.015 45.9705 424.075 48.5538 427.586 50.3795C431.096 52.2053 434.969 53.2278 438.923 53.3733C442.877 53.5187 446.814 52.7833 450.449 51.2204V2.1711C447.077 0.720857 443.441 -0.0182899 439.771 -0.000162765Z" fill="white"/>
<path d="M439.77 58.3749C438.579 58.3874 437.389 58.3041 436.211 58.1257V136.434H450.2V56.2036C446.904 57.6207 443.357 58.3591 439.77 58.3749Z" fill="white"/>
</g>
<defs>
<clipPath id="clip0_392_912">
<rect width="537.584" height="138" fill="white"/>
</clipPath>
</defs>
</svg>
